<?xml version="1.0" encoding="UTF-8" standalone="no"?>
<!-- Created with Inkscape (http://www.inkscape.org/) -->

<svg
   xmlns:dc="http://purl.org/dc/elements/1.1/"
   xmlns:cc="http://creativecommons.org/ns#"
   xmlns:rdf="http://www.w3.org/1999/02/22-rdf-syntax-ns#"
   xmlns:svg="http://www.w3.org/2000/svg"
   xmlns="http://www.w3.org/2000/svg"
   xmlns:sodipodi="http://sodipodi.sourceforge.net/DTD/sodipodi-0.dtd"
   xmlns:inkscape="http://www.inkscape.org/namespaces/inkscape"
   width="151.53703mm"
   height="121.00679mm"
   viewBox="0 0 151.53703 121.00679"
   version="1.1"
   id="svg8"
   inkscape:version="0.92.3 (2405546, 2018-03-11)"
   sodipodi:docname="icon.svg"
   inkscape:export-filename="C:\Google Drive\my_workspace\eos\icon.png"
   inkscape:export-xdpi="96"
   inkscape:export-ydpi="96">
  <defs
     id="defs2" />
  <sodipodi:namedview
     id="base"
     pagecolor="#ffffff"
     bordercolor="#666666"
     borderopacity="1.0"
     inkscape:pageopacity="0.0"
     inkscape:pageshadow="2"
     inkscape:zoom="2"
     inkscape:cx="287.4884"
     inkscape:cy="-258.32801"
     inkscape:document-units="mm"
     inkscape:current-layer="layer1"
     showgrid="false"
     inkscape:window-width="1920"
     inkscape:window-height="1001"
     inkscape:window-x="-9"
     inkscape:window-y="-9"
     inkscape:window-maximized="1"
     fit-margin-top="0"
     fit-margin-left="0"
     fit-margin-right="0"
     fit-margin-bottom="0" />
  <metadata
     id="metadata5">
    <rdf:RDF>
      <cc:Work
         rdf:about="">
        <dc:format>image/svg+xml</dc:format>
        <dc:type
           rdf:resource="http://purl.org/dc/dcmitype/StillImage" />
        <dc:title></dc:title>
      </cc:Work>
    </rdf:RDF>
  </metadata>
  <g
     inkscape:label="Layer 1"
     inkscape:groupmode="layer"
     id="layer1"
     transform="translate(-60.523183,-73.616123)">
    <circle
       style="opacity:1;vector-effect:none;fill:#00b1ea;fill-opacity:1;stroke:#b6870c;stroke-width:0.54021913;stroke-linecap:butt;stroke-linejoin:bevel;stroke-miterlimit:4;stroke-dasharray:0.27010956, 0.27010956;stroke-dashoffset:0;stroke-opacity:1;paint-order:markers stroke fill"
       id="path815"
       cx="143.64444"
       cy="138.34039"
       r="49.313808" />
    <path
       style="fill:#baa100;fill-opacity:1;stroke:#009ba4;stroke-width:4.07712603;stroke-linecap:butt;stroke-linejoin:miter;stroke-miterlimit:4;stroke-dasharray:none;stroke-opacity:1"
       d="m 123.47292,150.15236 c 0,0 -2.06097,-1.43512 -1.65183,-2.66313 0.40914,-1.22801 3.67934,-1.19968 4.31496,-1.68553 0.63563,-0.48585 0.0981,0.0361 0.0999,-0.13475 0.002,-0.17083 0.37716,-0.34317 -0.49598,-0.69959 -0.87314,-0.35642 -3.59513,1.32933 -4.72431,0.85452 -1.12918,-0.4748 -1.33611,-1.18193 -1.43021,-2.10956 -0.0942,-0.92763 1.19633,-2.24723 1.16799,-2.81277 -0.0283,-0.56554 0.044,-0.22176 -0.16675,-0.30988 -0.21069,-0.0881 -0.39173,0.37866 -0.97731,0.28605 -0.58558,-0.0926 -2.04533,-0.37102 -2.09766,-1.43024 -0.0524,-1.05921 2.07352,-2.06475 2.93194,-2.4552 0.85842,-0.39045 1.69148,0.33239 1.81163,-0.28605 0.12007,-0.61844 -1.61611,-0.2207 -1.6686,-1.00114 -0.0524,-0.78044 1.82916,-0.87142 2.14534,-1.71627 0.31618,-0.84484 1.05349,-1.4391 -0.47674,-2.62208 -1.53022,-1.18298 -7.46118,2.36109 -8.91504,0.66745 -1.45386,-1.69364 1.54315,-2.93229 1.00116,-4.33835 -0.54199,-1.40605 -2.95969,-1.57352 -3.76625,-2.62206 -0.80655,-1.04853 -1.56669,-1.57821 -1.14418,-3.14648 0.42251,-1.56826 3.43879,-3.17494 4.91043,-4.09997 1.47164,-0.92504 3.67235,-0.45601 3.67088,-1.66859 -10e-4,-1.21258 -2.16194,-1.69661 -2.95577,-1.33487 -0.79384,0.36174 0.46889,1.37057 -0.57211,1.90697 -1.04099,0.53641 -3.70005,-1.15535 -4.76738,-1.62092 -1.06733,-0.46557 -1.62877,0.0826 -1.71716,-0.92677 -0.0885,-1.00929 2.33529,-1.86773 3.23622,-2.56201 0.90092,-0.69427 1.17258,-1.46483 2.15747,-1.6181 0.98489,-0.1533 1.8787,1.03864 3.10139,1.07874 1.22269,0.0402 2.4243,-1.19598 3.91041,-1.07874 1.48611,0.11721 3.97495,1.03858 4.44981,2.02264 0.47487,0.98405 -0.84608,0.81373 -0.40453,1.61811 0.44155,0.80437 2.72338,1.84221 3.64075,1.21357 0.91738,-0.62863 -0.95158,-2.341 0.13475,-2.83168 1.08633,-0.49068 2.26432,3.1 3.37107,2.69685 1.10676,-0.40314 -0.86041,-2.14128 0.53936,-2.69685 1.39978,-0.55557 3.91152,2.35859 5.12401,3.64075 1.2125,1.28215 1.70663,2.72018 2.29233,3.64075 0.5857,0.92057 0.52904,2.01245 1.21359,1.88779 0.68456,-0.12456 0.14658,-1.17919 0.40452,-1.88779 0.25786,-0.70861 0.40115,-1.75594 1.2136,-2.29232 0.81244,-0.53639 3.02498,0.71182 3.23621,-0.26971 0.21124,-0.98152 -1.86353,-0.6136 -2.42717,-1.3484 -0.56364,-0.7348 -0.99947,-1.74346 -0.67421,-2.69686 0.32525,-0.95339 1.00173,-1.42801 2.562,-2.02264 1.56028,-0.59463 4.62195,-0.46096 6.74212,-0.40453 2.12017,0.0565 4.582,-0.0997 5.93307,0.67421 1.35108,0.77398 2.75182,1.40019 2.02265,2.69686 -0.72918,1.29667 -4.10243,-0.91377 -5.52855,-0.53937 -1.42611,0.37441 -2.63512,1.18292 -2.69685,1.88779 -0.0618,0.70488 0.0834,0.49533 0.67421,0.67422 0.5908,0.17878 2.12478,-0.92078 2.69686,-0.53939 0.57208,0.3814 0.36557,0.8351 0.26968,1.34843 -0.0958,0.51333 -1.31549,0.54138 -0.9439,1.48328 0.37159,0.9419 2.83605,1.2319 4.18012,1.07873 1.34406,-0.1531 2.47871,-1.39764 3.37107,-1.75294 0.89236,-0.3553 1.28348,-0.88841 1.88779,-0.53939 0.60431,0.34903 0.75064,1.20274 0.53936,2.1575 -0.21128,0.95476 -2.26238,1.83827 -2.29232,2.83168 -0.03,0.99342 0.35666,1.64981 1.34843,1.88779 0.99176,0.23799 2.52443,-1.2425 3.37107,-1.75294 0.84663,-0.51043 1.02129,-1.37138 1.75294,-1.21359 0.73164,0.15778 0.92685,1.3618 1.21357,2.02264 0.28673,0.66084 -0.12374,1.36465 0.53939,1.88779 0.66308,0.52314 2.49597,-0.40788 3.10136,0.13475 0.6054,0.54262 0.49625,0.61242 0.26968,1.75294 -0.22656,1.14051 -1.72177,3.92777 -2.69683,4.44981 -0.97507,0.52204 -0.56497,0.0897 -1.43158,-0.0614 -0.86661,-0.15106 -2.57104,-0.58902 -3.6709,-1.14419 -1.09987,-0.55516 -1.88188,-2.01473 -2.86043,-2.09766 -0.97855,-0.083 -2.27875,0.28177 -2.09766,1.04884 0.18102,0.76708 1.71219,-0.36718 2.38371,0 0.67152,0.36719 0.98334,1.14765 1.19184,1.85928 0.20851,0.71162 0.39779,1.40346 0,2.24068 -0.39778,0.83722 -1.65845,1.45963 -2.5744,2.09766 -0.91594,0.63803 -1.78123,1.81969 -2.90811,1.71627 -1.12687,-0.10336 -1.7449,-2.76515 -2.5744,-2.24069 -0.82949,0.52446 0.79965,1.80593 0.66743,2.38369 -0.1323,0.57777 -0.79021,0.3626 -0.71511,0.81048 0.075,0.44787 0.93258,0.68807 1.43024,0.81045 0.49765,0.12231 0.86955,-0.35168 1.43021,-0.0477 0.56067,0.30397 0.83553,0.88609 1.23953,2.05 0.404,1.16392 1.66365,3.25326 0.61976,4.95809 -1.04388,1.70483 -4.71533,2.43011 -6.57901,2.3837 -1.86367,-0.0465 -3.23695,-0.72082 -3.86161,-1.62091 -0.62465,-0.90008 -0.85815,-2.38371 -0.0954,-2.38371 0.76277,0 2.2447,-1.67657 1.52558,-2.66974 -0.71913,-0.99317 -3.66691,-0.11375 -4.19533,0.85813 -0.52841,0.97183 0.76277,2.00226 0.85814,2.19301 0.0954,0.19081 0.66353,2.13859 0.90581,2.86045 0.24229,0.72185 1.03804,0.86343 0.5244,1.47787 -0.51363,0.61445 -2.42328,-0.0807 -3.19414,-0.5244 -0.77086,-0.44373 -0.70345,-1.28056 -1.33489,-1.62092 -0.63145,-0.34036 -1.61026,0.2464 -2.1916,-0.23507 -0.58134,-0.48146 -0.04,-1.41672 -0.67421,-2.2249 -0.63416,-0.80819 -2.18237,-2.42985 -3.30366,-1.95521 -1.12129,0.47464 -0.88594,2.31196 -0.80904,3.37107 0.0769,1.05912 0.37953,1.88942 1.07874,2.69684 0.69921,0.80741 2.29856,1.06835 3.03396,1.75296 0.73539,0.68461 1.1029,1.4464 1.41584,2.09005 0.31294,0.64366 0.92583,0.96086 0.53936,1.68553 -0.38647,0.72467 -1.82447,1.15951 -3.03395,0.87648 -1.20948,-0.28304 -2.1251,-3.4224 -3.16881,-2.89912 -1.0437,0.52327 -0.15085,1.99718 0.26971,2.69685 0.42057,0.69968 1.8978,0.41446 1.82035,1.21358 -0.0775,0.79911 -1.30662,0.76868 -2.42715,1.01133 -1.12054,0.24265 -3.24584,-0.085 -4.24753,0.13475 -1.00169,0.21976 -0.99268,0.62651 -1.75296,0.74163 -0.76028,0.11518 -2.21402,0.63426 -2.69686,-0.26968 -0.48283,-0.90394 1.58001,-2.09426 1.61811,-3.03396 0.0381,-0.93969 -0.14535,-1.76668 -0.87648,-2.02264 -0.73105,-0.25596 -2.02831,0.48826 -2.15747,1.14616 -0.12925,0.65791 0.78534,0.48824 1.01133,1.2136 0.226,0.72536 0.46895,2.16569 -0.2697,2.96652 -0.73865,0.80083 -2.38202,0.38092 -3.5059,0.6068 -1.12388,0.22587 -2.12174,0.26792 -3.23622,0.74163 -1.11448,0.4737 -2.69684,1.95524 -3.30363,2.15749 -0.6068,0.20222 -3.90563,3.24474 -5.2906,0.20263 -1.38498,-3.04211 10.11125,-10.75372 10.11125,-10.75372"
       id="path911"
       inkscape:connector-curvature="0"
       sodipodi:nodetypes="czzzzzzzzzzzzzzzzzzzzzzzzzzzzzzzzzzzzzzzzzzzzzzzzzzzzzzzzzzzzzzzzzzzzzzzzzzzzzzzzzzzzzzzzzzzzzzzzzzzzzzzzzzzzzzzzzzzzzc" />
    <path
       style="fill:none;stroke:#000000;stroke-width:0.50964075;stroke-linecap:butt;stroke-linejoin:miter;stroke-miterlimit:4;stroke-dasharray:4.0771258, 4.0771258;stroke-dashoffset:0;stroke-opacity:1"
       d="m 93.720652,144.70877 c 0,0 -25.656411,7.51227 -21.602814,15.36402 4.561309,8.83517 118.433242,-17.38387 139.142552,-40.88738 4.7311,-5.36942 -22.79209,-1.08298 -22.79209,-1.08298"
       id="path817"
       inkscape:connector-curvature="0"
       sodipodi:nodetypes="cssc" />
    <path
       style="fill:none;stroke:#000000;stroke-width:0.50964075;stroke-linecap:butt;stroke-linejoin:miter;stroke-miterlimit:4;stroke-dasharray:4.0771258, 4.0771258;stroke-dashoffset:0;stroke-opacity:1"
       d="m 141.41716,89.217161 c -0.043,-0.272727 -5.92405,-5.689986 -14.71201,-3.053029 -11.40672,3.422759 -25.34021,84.077088 19.39502,107.788898 4.86171,2.57695 8.43839,-7.5364 8.43839,-7.5364"
       id="path817-0"
       inkscape:connector-curvature="0"
       sodipodi:nodetypes="cssc" />
    <path
       style="fill:#c22d00;fill-opacity:1;stroke:#c22d00;stroke-width:0.53936976px;stroke-linecap:butt;stroke-linejoin:miter;stroke-opacity:1"
       d="m 71.39286,162.48047 4.481352,-4.48135 3.623227,2.09764 -6.579017,3.24184 z"
       id="path913"
       inkscape:connector-curvature="0" />
    <path
       style="fill:#465861;fill-opacity:0.40838856;stroke:none;stroke-width:0.53936976px;stroke-linecap:butt;stroke-linejoin:miter;stroke-opacity:1"
       d="m 72.823079,160.57352 -12.299896,-3.81393 c 0,0 12.013851,-8.19993 12.395239,-8.19993 0.381395,0 2.95579,9.43946 2.95579,9.43946 z"
       id="path915"
       inkscape:connector-curvature="0" />
    <path
       style="fill:#465861;fill-opacity:0.40838856;stroke:none;stroke-width:0.53936976px;stroke-linecap:butt;stroke-linejoin:miter;stroke-opacity:1"
       d="m 74.730036,162.09908 v 9.63015 l 9.439451,-7.81854 -6.579011,-3.43254 z"
       id="path917"
       inkscape:connector-curvature="0" />
    <g
       id="g943"
       transform="matrix(0,2.0385629,-2.0385629,0,287.06339,-102.58699)">
      <path
         inkscape:connector-curvature="0"
         id="path913-6"
         d="m 91.766994,80.561796 2.19829,-2.19829 1.777344,1.02898 -3.227282,1.59026 z"
         style="fill:#c22d00;fill-opacity:1;stroke:#c22d00;stroke-width:0.26458332px;stroke-linecap:butt;stroke-linejoin:miter;stroke-opacity:1" />
      <path
         inkscape:connector-curvature="0"
         id="path915-9"
         d="m 92.468576,79.626356 -6.033611,-1.87089 c 0,0 5.893294,-4.02241 6.080381,-4.02241 0.18709,0 1.449938,4.63045 1.449938,4.63045 z"
         style="fill:#465861;fill-opacity:0.40838856;stroke:none;stroke-width:0.26458332px;stroke-linecap:butt;stroke-linejoin:miter;stroke-opacity:1" />
      <path
         inkscape:connector-curvature="0"
         id="path917-2"
         d="m 93.404018,80.374706 v 4.72399 l 4.630444,-3.83532 -3.227279,-1.6838 z"
         style="fill:#465861;fill-opacity:0.40838856;stroke:none;stroke-width:0.26458332px;stroke-linecap:butt;stroke-linejoin:miter;stroke-opacity:1" />
    </g>
    <rect
       style="opacity:1;vector-effect:none;fill:#257cdf;fill-opacity:1;stroke:none;stroke-width:4;stroke-linecap:butt;stroke-linejoin:bevel;stroke-miterlimit:4;stroke-dasharray:none;stroke-dashoffset:0;stroke-opacity:1;paint-order:markers stroke fill"
       id="rect949"
       width="51.262295"
       height="26.192413"
       x="90.479401"
       y="240.22127"
       inkscape:export-xdpi="96"
       inkscape:export-ydpi="96"
       rx="5.4239583"
       ry="5.4239583" />
    <text
       xml:space="preserve"
       style="font-style:normal;font-weight:normal;font-size:10.58333302px;line-height:1.25;font-family:sans-serif;letter-spacing:0px;word-spacing:0px;fill:#ffffff;fill-opacity:1;stroke:none;stroke-width:0.26458332;stroke-opacity:1;"
       x="103.38851"
       y="257.24637"
       id="text947"
       inkscape:export-xdpi="96"
       inkscape:export-ydpi="96"><tspan
         sodipodi:role="line"
         id="tspan945"
         x="103.38851"
         y="257.24637"
         style="font-weight:bold;fill:#ffffff;fill-opacity:1;stroke:none;stroke-width:0.26458332;stroke-opacity:1;">EOS</tspan></text>
  </g>
</svg>
